<svg width="360" height="230" viewBox="0 0 360 230" fill="none" xmlns="http://www.w3.org/2000/svg">
<rect x="0.5" y="0.5" width="359" height="229" fill="#111111" stroke="white"/>
<path d="M25.6205 202C25.2391 202 24.9185 201.87 24.6585 201.61C24.3985 201.35 24.2685 201.029 24.2685 200.648V183.046C24.2685 182.647 24.3985 182.327 24.6585 182.084C24.9185 181.824 25.2391 181.694 25.6205 181.694C26.0191 181.694 26.3398 181.824 26.5825 182.084C26.8425 182.327 26.9725 182.647 26.9725 183.046V190.508H39.0365V183.046C39.0365 182.647 39.1665 182.327 39.4265 182.084C39.6865 181.824 40.0071 181.694 40.3885 181.694C40.7871 181.694 41.1078 181.824 41.3505 182.084C41.5931 182.327 41.7145 182.647 41.7145 183.046V200.648C41.7145 201.029 41.5931 201.35 41.3505 201.61C41.1078 201.87 40.7871 202 40.3885 202C40.0071 202 39.6865 201.87 39.4265 201.61C39.1665 201.35 39.0365 201.029 39.0365 200.648V192.9H26.9725V200.648C26.9725 201.029 26.8425 201.35 26.5825 201.61C26.3398 201.87 26.0191 202 25.6205 202ZM52.5849 202.104C51.3196 202.104 50.1842 201.792 49.1789 201.168C48.1736 200.527 47.3762 199.669 46.7869 198.594C46.2149 197.502 45.9289 196.271 45.9289 194.902C45.9289 193.533 46.2409 192.302 46.8649 191.21C47.5062 190.118 48.3642 189.26 49.4389 188.636C50.5309 187.995 51.7529 187.674 53.1049 187.674C54.4569 187.674 55.6702 187.995 56.7449 188.636C57.8196 189.26 58.6689 190.118 59.2929 191.21C59.9342 192.302 60.2549 193.533 60.2549 194.902H59.2409C59.2409 196.271 58.9462 197.502 58.3569 198.594C57.7849 199.669 56.9962 200.527 55.9909 201.168C54.9856 201.792 53.8502 202.104 52.5849 202.104ZM53.1049 199.764C53.9889 199.764 54.7776 199.556 55.4709 199.14C56.1642 198.707 56.7102 198.126 57.1089 197.398C57.5076 196.653 57.7069 195.821 57.7069 194.902C57.7069 193.966 57.5076 193.134 57.1089 192.406C56.7102 191.661 56.1642 191.08 55.4709 190.664C54.7776 190.231 53.9889 190.014 53.1049 190.014C52.2382 190.014 51.4496 190.231 50.7389 190.664C50.0456 191.08 49.4909 191.661 49.0749 192.406C48.6762 193.134 48.4769 193.966 48.4769 194.902C48.4769 195.821 48.6762 196.653 49.0749 197.398C49.4909 198.126 50.0456 198.707 50.7389 199.14C51.4496 199.556 52.2382 199.764 53.1049 199.764ZM58.9289 202.026C58.5476 202.026 58.2269 201.905 57.9669 201.662C57.7242 201.402 57.6029 201.081 57.6029 200.7V196.722L58.0969 193.966L60.2549 194.902V200.7C60.2549 201.081 60.1249 201.402 59.8649 201.662C59.6222 201.905 59.3102 202.026 58.9289 202.026ZM70.6498 202.104C69.2632 202.104 68.0238 201.792 66.9318 201.168C65.8571 200.527 65.0078 199.669 64.3838 198.594C63.7771 197.502 63.4738 196.271 63.4738 194.902C63.4738 193.498 63.7771 192.25 64.3838 191.158C64.9905 190.066 65.8225 189.217 66.8798 188.61C67.9371 187.986 69.1505 187.674 70.5198 187.674C71.5425 187.674 72.4785 187.873 73.3278 188.272C74.1772 188.653 74.9398 189.234 75.6158 190.014C75.8585 190.291 75.9452 190.577 75.8758 190.872C75.8065 191.167 75.6158 191.427 75.3038 191.652C75.0612 191.825 74.7925 191.886 74.4978 191.834C74.2032 191.765 73.9345 191.609 73.6918 191.366C72.8425 190.465 71.7852 190.014 70.5198 190.014C69.6358 190.014 68.8558 190.222 68.1798 190.638C67.5038 191.037 66.9752 191.6 66.5938 192.328C66.2125 193.056 66.0218 193.914 66.0218 194.902C66.0218 195.838 66.2125 196.67 66.5938 197.398C66.9925 198.126 67.5385 198.707 68.2318 199.14C68.9252 199.556 69.7312 199.764 70.6498 199.764C71.2565 199.764 71.7852 199.695 72.2358 199.556C72.7038 199.4 73.1285 199.166 73.5098 198.854C73.7872 198.629 74.0732 198.507 74.3678 198.49C74.6625 198.455 74.9225 198.533 75.1478 198.724C75.4425 198.967 75.6071 199.244 75.6418 199.556C75.6765 199.851 75.5725 200.119 75.3298 200.362C74.0818 201.523 72.5218 202.104 70.6498 202.104ZM98.4851 202.026C98.1037 202.026 97.7831 201.905 97.5231 201.662C97.2804 201.402 97.1591 201.081 97.1591 200.7V193.264C97.1591 192.172 96.8904 191.366 96.3531 190.846C95.8157 190.309 95.1137 190.04 94.2471 190.04C93.3457 190.04 92.6004 190.352 92.0111 190.976C91.4391 191.6 91.1531 192.397 91.1531 193.368H88.9951C88.9951 192.241 89.2377 191.253 89.7231 190.404C90.2084 189.537 90.8844 188.861 91.7511 188.376C92.6351 187.891 93.6404 187.648 94.7671 187.648C95.7551 187.648 96.6304 187.865 97.3931 188.298C98.1557 188.731 98.7451 189.373 99.1611 190.222C99.5944 191.054 99.8111 192.068 99.8111 193.264V200.7C99.8111 201.081 99.6897 201.402 99.4471 201.662C99.2044 201.905 98.8837 202.026 98.4851 202.026ZM81.1431 202.026C80.7617 202.026 80.4411 201.905 80.1811 201.662C79.9384 201.402 79.8171 201.081 79.8171 200.7V189.13C79.8171 188.731 79.9384 188.411 80.1811 188.168C80.4411 187.925 80.7617 187.804 81.1431 187.804C81.5417 187.804 81.8624 187.925 82.1051 188.168C82.3477 188.411 82.4691 188.731 82.4691 189.13V200.7C82.4691 201.081 82.3477 201.402 82.1051 201.662C81.8624 201.905 81.5417 202.026 81.1431 202.026ZM89.8271 202.026C89.4457 202.026 89.1251 201.905 88.8651 201.662C88.6224 201.402 88.5011 201.081 88.5011 200.7V193.264C88.5011 192.172 88.2324 191.366 87.6951 190.846C87.1577 190.309 86.4557 190.04 85.5891 190.04C84.6877 190.04 83.9424 190.352 83.3531 190.976C82.7637 191.6 82.4691 192.397 82.4691 193.368H80.8311C80.8311 192.241 81.0564 191.253 81.5071 190.404C81.9577 189.537 82.5817 188.861 83.3791 188.376C84.1764 187.891 85.0864 187.648 86.1091 187.648C87.0971 187.648 87.9724 187.865 88.7351 188.298C89.4977 188.731 90.0871 189.373 90.5031 190.222C90.9364 191.054 91.1531 192.068 91.1531 193.264V200.7C91.1531 201.081 91.0317 201.402 90.7891 201.662C90.5464 201.905 90.2257 202.026 89.8271 202.026ZM105.543 208.084C105.162 208.084 104.841 207.954 104.581 207.694C104.339 207.451 104.217 207.139 104.217 206.758V194.902C104.235 193.533 104.555 192.302 105.179 191.21C105.803 190.118 106.653 189.26 107.727 188.636C108.802 187.995 110.015 187.674 111.367 187.674C112.737 187.674 113.959 187.995 115.033 188.636C116.108 189.26 116.957 190.118 117.581 191.21C118.223 192.302 118.543 193.533 118.543 194.902C118.543 196.271 118.249 197.502 117.659 198.594C117.087 199.669 116.299 200.527 115.293 201.168C114.288 201.792 113.153 202.104 111.887 202.104C110.865 202.104 109.92 201.896 109.053 201.48C108.204 201.047 107.476 200.466 106.869 199.738V206.758C106.869 207.139 106.748 207.451 106.505 207.694C106.263 207.954 105.942 208.084 105.543 208.084ZM111.367 199.764C112.251 199.764 113.04 199.556 113.733 199.14C114.427 198.707 114.973 198.126 115.371 197.398C115.787 196.653 115.995 195.821 115.995 194.902C115.995 193.966 115.787 193.134 115.371 192.406C114.973 191.661 114.427 191.08 113.733 190.664C113.04 190.231 112.251 190.014 111.367 190.014C110.501 190.014 109.712 190.231 109.001 190.664C108.308 191.08 107.762 191.661 107.363 192.406C106.965 193.134 106.765 193.966 106.765 194.902C106.765 195.821 106.965 196.653 107.363 197.398C107.762 198.126 108.308 198.707 109.001 199.14C109.712 199.556 110.501 199.764 111.367 199.764ZM128.947 202.104C127.543 202.104 126.303 201.801 125.229 201.194C124.154 200.57 123.305 199.721 122.681 198.646C122.074 197.554 121.771 196.306 121.771 194.902C121.771 193.481 122.074 192.233 122.681 191.158C123.305 190.066 124.154 189.217 125.229 188.61C126.303 187.986 127.543 187.674 128.947 187.674C130.333 187.674 131.564 187.986 132.639 188.61C133.713 189.217 134.554 190.066 135.161 191.158C135.785 192.233 136.097 193.481 136.097 194.902C136.097 196.306 135.793 197.554 135.187 198.646C134.58 199.721 133.739 200.57 132.665 201.194C131.59 201.801 130.351 202.104 128.947 202.104ZM128.947 199.764C129.848 199.764 130.645 199.556 131.339 199.14C132.032 198.724 132.569 198.152 132.951 197.424C133.349 196.696 133.549 195.855 133.549 194.902C133.549 193.949 133.349 193.108 132.951 192.38C132.569 191.635 132.032 191.054 131.339 190.638C130.645 190.222 129.848 190.014 128.947 190.014C128.045 190.014 127.248 190.222 126.555 190.638C125.861 191.054 125.315 191.635 124.917 192.38C124.518 193.108 124.319 193.949 124.319 194.902C124.319 195.855 124.518 196.696 124.917 197.424C125.315 198.152 125.861 198.724 126.555 199.14C127.248 199.556 128.045 199.764 128.947 199.764ZM146.024 202.13C144.828 202.13 143.753 201.879 142.8 201.376C141.864 200.856 141.118 200.102 140.564 199.114C140.026 198.126 139.758 196.913 139.758 195.474V189.078C139.758 188.697 139.879 188.385 140.122 188.142C140.382 187.882 140.702 187.752 141.084 187.752C141.465 187.752 141.777 187.882 142.02 188.142C142.28 188.385 142.41 188.697 142.41 189.078V195.474C142.41 196.445 142.592 197.251 142.956 197.892C143.32 198.516 143.814 198.984 144.438 199.296C145.062 199.591 145.764 199.738 146.544 199.738C147.289 199.738 147.948 199.591 148.52 199.296C149.109 199.001 149.577 198.603 149.924 198.1C150.27 197.597 150.444 197.034 150.444 196.41H152.082C152.082 197.485 151.813 198.455 151.276 199.322C150.756 200.189 150.036 200.873 149.118 201.376C148.216 201.879 147.185 202.13 146.024 202.13ZM151.77 202C151.388 202 151.068 201.879 150.808 201.636C150.565 201.376 150.444 201.055 150.444 200.674V189.078C150.444 188.679 150.565 188.359 150.808 188.116C151.068 187.873 151.388 187.752 151.77 187.752C152.168 187.752 152.489 187.873 152.732 188.116C152.974 188.359 153.096 188.679 153.096 189.078V200.674C153.096 201.055 152.974 201.376 152.732 201.636C152.489 201.879 152.168 202 151.77 202ZM146.57 185.906C145.686 185.906 144.888 185.759 144.178 185.464C143.467 185.152 142.904 184.736 142.488 184.216C142.072 183.679 141.864 183.081 141.864 182.422C141.864 182.058 141.976 181.755 142.202 181.512C142.427 181.269 142.704 181.148 143.034 181.148C143.38 181.148 143.658 181.269 143.866 181.512C144.091 181.755 144.204 182.058 144.204 182.422C144.204 182.855 144.429 183.228 144.88 183.54C145.33 183.835 145.894 183.982 146.57 183.982C147.246 183.982 147.809 183.835 148.26 183.54C148.71 183.228 148.936 182.855 148.936 182.422C148.936 182.058 149.048 181.755 149.274 181.512C149.499 181.269 149.776 181.148 150.106 181.148C150.452 181.148 150.73 181.269 150.938 181.512C151.163 181.755 151.276 182.058 151.276 182.422C151.276 183.081 151.068 183.679 150.652 184.216C150.236 184.736 149.672 185.152 148.962 185.464C148.268 185.759 147.471 185.906 146.57 185.906ZM169.31 201.688C169.085 201.896 168.764 202 168.348 202C167.95 201.983 167.638 201.861 167.412 201.636L161.094 194.85L167.048 188.194C167.274 187.951 167.586 187.813 167.984 187.778C168.4 187.743 168.721 187.83 168.946 188.038C169.206 188.281 169.354 188.558 169.388 188.87C169.423 189.165 169.328 189.433 169.102 189.676L164.396 194.72L169.388 200.076C169.614 200.301 169.726 200.57 169.726 200.882C169.726 201.177 169.588 201.445 169.31 201.688ZM159.014 202.026C158.633 202.026 158.33 201.905 158.104 201.662C157.879 201.402 157.766 201.081 157.766 200.7V189.104C157.766 188.705 157.879 188.385 158.104 188.142C158.33 187.899 158.633 187.778 159.014 187.778C159.413 187.778 159.734 187.899 159.976 188.142C160.236 188.385 160.366 188.705 160.366 189.104V193.446H163.694V195.89H160.366V200.7C160.366 201.081 160.236 201.402 159.976 201.662C159.734 201.905 159.413 202.026 159.014 202.026ZM177.608 202.104C176.343 202.104 175.208 201.792 174.202 201.168C173.197 200.527 172.4 199.669 171.81 198.594C171.238 197.502 170.952 196.271 170.952 194.902C170.952 193.533 171.264 192.302 171.888 191.21C172.53 190.118 173.388 189.26 174.462 188.636C175.554 187.995 176.776 187.674 178.128 187.674C179.48 187.674 180.694 187.995 181.768 188.636C182.843 189.26 183.692 190.118 184.316 191.21C184.958 192.302 185.278 193.533 185.278 194.902H184.264C184.264 196.271 183.97 197.502 183.38 198.594C182.808 199.669 182.02 200.527 181.014 201.168C180.009 201.792 178.874 202.104 177.608 202.104ZM178.128 199.764C179.012 199.764 179.801 199.556 180.494 199.14C181.188 198.707 181.734 198.126 182.132 197.398C182.531 196.653 182.73 195.821 182.73 194.902C182.73 193.966 182.531 193.134 182.132 192.406C181.734 191.661 181.188 191.08 180.494 190.664C179.801 190.231 179.012 190.014 178.128 190.014C177.262 190.014 176.473 190.231 175.762 190.664C175.069 191.08 174.514 191.661 174.098 192.406C173.7 193.134 173.5 193.966 173.5 194.902C173.5 195.821 173.7 196.653 174.098 197.398C174.514 198.126 175.069 198.707 175.762 199.14C176.473 199.556 177.262 199.764 178.128 199.764ZM183.952 202.026C183.571 202.026 183.25 201.905 182.99 201.662C182.748 201.402 182.626 201.081 182.626 200.7V196.722L183.12 193.966L185.278 194.902V200.7C185.278 201.081 185.148 201.402 184.888 201.662C184.646 201.905 184.334 202.026 183.952 202.026Z" fill="white"/>
<path d="M340.37 122H321.181V79.0801H253.505C252.138 79.0801 250.868 78.8359 249.696 78.3477C248.524 77.8105 247.499 77.127 246.62 76.2969C245.79 75.418 245.131 74.3926 244.643 73.2207C244.154 72.0488 243.91 70.8037 243.91 69.4854V16.9707H262.953V59.8906H321.181V16.9707H340.37V122Z" fill="white" fill-opacity="0.35"/>
</svg>
