<svg width="360" height="230" viewBox="0 0 360 230" fill="none" xmlns="http://www.w3.org/2000/svg">
<rect x="0.5" y="0.5" width="359" height="229" fill="#111111" stroke="white"/>
<path d="M25.6205 202C25.2391 202 24.9185 201.87 24.6585 201.61C24.3985 201.35 24.2685 201.029 24.2685 200.648V183.046C24.2685 182.647 24.3985 182.327 24.6585 182.084C24.9185 181.824 25.2391 181.694 25.6205 181.694H39.4525C39.8511 181.694 40.1718 181.824 40.4145 182.084C40.6745 182.327 40.8045 182.647 40.8045 183.046V200.648C40.8045 201.029 40.6745 201.35 40.4145 201.61C40.1718 201.87 39.8511 202 39.4525 202C39.0711 202 38.7505 201.87 38.4905 201.61C38.2305 201.35 38.1005 201.029 38.1005 200.648V184.086H26.9725V200.648C26.9725 201.029 26.8425 201.35 26.5825 201.61C26.3398 201.87 26.0191 202 25.6205 202ZM47.0688 208.084C46.6875 208.084 46.3668 207.954 46.1068 207.694C45.8642 207.451 45.7428 207.139 45.7428 206.758V194.902C45.7602 193.533 46.0808 192.302 46.7048 191.21C47.3288 190.118 48.1782 189.26 49.2528 188.636C50.3275 187.995 51.5408 187.674 52.8928 187.674C54.2622 187.674 55.4842 187.995 56.5588 188.636C57.6335 189.26 58.4828 190.118 59.1068 191.21C59.7482 192.302 60.0688 193.533 60.0688 194.902C60.0688 196.271 59.7742 197.502 59.1848 198.594C58.6128 199.669 57.8242 200.527 56.8188 201.168C55.8135 201.792 54.6782 202.104 53.4128 202.104C52.3902 202.104 51.4455 201.896 50.5788 201.48C49.7295 201.047 49.0015 200.466 48.3948 199.738V206.758C48.3948 207.139 48.2735 207.451 48.0308 207.694C47.7882 207.954 47.4675 208.084 47.0688 208.084ZM52.8928 199.764C53.7768 199.764 54.5655 199.556 55.2588 199.14C55.9522 198.707 56.4982 198.126 56.8968 197.398C57.3128 196.653 57.5208 195.821 57.5208 194.902C57.5208 193.966 57.3128 193.134 56.8968 192.406C56.4982 191.661 55.9522 191.08 55.2588 190.664C54.5655 190.231 53.7768 190.014 52.8928 190.014C52.0262 190.014 51.2375 190.231 50.5268 190.664C49.8335 191.08 49.2875 191.661 48.8888 192.406C48.4902 193.134 48.2908 193.966 48.2908 194.902C48.2908 195.821 48.4902 196.653 48.8888 197.398C49.2875 198.126 49.8335 198.707 50.5268 199.14C51.2375 199.556 52.0262 199.764 52.8928 199.764ZM70.4721 202.104C69.0681 202.104 67.8287 201.801 66.7541 201.194C65.6794 200.57 64.8301 199.721 64.2061 198.646C63.5994 197.554 63.2961 196.306 63.2961 194.902C63.2961 193.481 63.5994 192.233 64.2061 191.158C64.8301 190.066 65.6794 189.217 66.7541 188.61C67.8287 187.986 69.0681 187.674 70.4721 187.674C71.8587 187.674 73.0894 187.986 74.1641 188.61C75.2387 189.217 76.0794 190.066 76.6861 191.158C77.3101 192.233 77.6221 193.481 77.6221 194.902C77.6221 196.306 77.3187 197.554 76.7121 198.646C76.1054 199.721 75.2647 200.57 74.1901 201.194C73.1154 201.801 71.8761 202.104 70.4721 202.104ZM70.4721 199.764C71.3734 199.764 72.1707 199.556 72.8641 199.14C73.5574 198.724 74.0947 198.152 74.4761 197.424C74.8747 196.696 75.0741 195.855 75.0741 194.902C75.0741 193.949 74.8747 193.108 74.4761 192.38C74.0947 191.635 73.5574 191.054 72.8641 190.638C72.1707 190.222 71.3734 190.014 70.4721 190.014C69.5707 190.014 68.7734 190.222 68.0801 190.638C67.3867 191.054 66.8407 191.635 66.4421 192.38C66.0434 193.108 65.8441 193.949 65.8441 194.902C65.8441 195.855 66.0434 196.696 66.4421 197.424C66.8407 198.152 67.3867 198.724 68.0801 199.14C68.7734 199.556 69.5707 199.764 70.4721 199.764ZM88.251 202.104C86.8123 202.104 85.5297 201.801 84.403 201.194C83.2937 200.57 82.4183 199.721 81.777 198.646C81.153 197.554 80.841 196.306 80.841 194.902C80.841 193.481 81.1357 192.233 81.725 191.158C82.3317 190.066 83.1637 189.217 84.221 188.61C85.2783 187.986 86.4917 187.674 87.861 187.674C89.213 187.674 90.3743 187.977 91.345 188.584C92.3157 189.173 93.0523 189.997 93.555 191.054C94.075 192.094 94.335 193.299 94.335 194.668C94.335 194.997 94.2223 195.275 93.997 195.5C93.7717 195.708 93.4857 195.812 93.139 195.812H82.661V193.732H93.061L91.995 194.46C91.9777 193.593 91.8043 192.822 91.475 192.146C91.1457 191.453 90.6777 190.907 90.071 190.508C89.4643 190.109 88.7277 189.91 87.861 189.91C86.873 189.91 86.0237 190.127 85.313 190.56C84.6197 190.993 84.091 191.591 83.727 192.354C83.363 193.099 83.181 193.949 83.181 194.902C83.181 195.855 83.3977 196.705 83.831 197.45C84.2643 198.195 84.8623 198.785 85.625 199.218C86.3877 199.651 87.263 199.868 88.251 199.868C88.7883 199.868 89.3343 199.773 89.889 199.582C90.461 199.374 90.9203 199.14 91.267 198.88C91.527 198.689 91.8043 198.594 92.099 198.594C92.411 198.577 92.6797 198.663 92.905 198.854C93.1997 199.114 93.3557 199.4 93.373 199.712C93.3903 200.024 93.2517 200.293 92.957 200.518C92.3677 200.986 91.631 201.367 90.747 201.662C89.8803 201.957 89.0483 202.104 88.251 202.104ZM109.261 201.688C109.036 201.896 108.715 202 108.299 202C107.901 201.983 107.589 201.861 107.363 201.636L101.045 194.85L106.999 188.194C107.225 187.951 107.537 187.813 107.935 187.778C108.351 187.743 108.672 187.83 108.897 188.038C109.157 188.281 109.305 188.558 109.339 188.87C109.374 189.165 109.279 189.433 109.053 189.676L104.347 194.72L109.339 200.076C109.565 200.301 109.677 200.57 109.677 200.882C109.677 201.177 109.539 201.445 109.261 201.688ZM98.9654 202.026C98.5841 202.026 98.2808 201.905 98.0554 201.662C97.8301 201.402 97.7174 201.081 97.7174 200.7V189.104C97.7174 188.705 97.8301 188.385 98.0554 188.142C98.2808 187.899 98.5841 187.778 98.9654 187.778C99.3641 187.778 99.6848 187.899 99.9274 188.142C100.187 188.385 100.317 188.705 100.317 189.104V193.446H103.645V195.89H100.317V200.7C100.317 201.081 100.187 201.402 99.9274 201.662C99.6848 201.905 99.3641 202.026 98.9654 202.026ZM131.594 202.026C131.213 202.026 130.892 201.905 130.632 201.662C130.39 201.402 130.268 201.081 130.268 200.7V193.264C130.268 192.172 130 191.366 129.462 190.846C128.925 190.309 128.223 190.04 127.356 190.04C126.455 190.04 125.71 190.352 125.12 190.976C124.548 191.6 124.262 192.397 124.262 193.368H122.104C122.104 192.241 122.347 191.253 122.832 190.404C123.318 189.537 123.994 188.861 124.86 188.376C125.744 187.891 126.75 187.648 127.876 187.648C128.864 187.648 129.74 187.865 130.502 188.298C131.265 188.731 131.854 189.373 132.27 190.222C132.704 191.054 132.92 192.068 132.92 193.264V200.7C132.92 201.081 132.799 201.402 132.556 201.662C132.314 201.905 131.993 202.026 131.594 202.026ZM114.252 202.026C113.871 202.026 113.55 201.905 113.29 201.662C113.048 201.402 112.926 201.081 112.926 200.7V189.13C112.926 188.731 113.048 188.411 113.29 188.168C113.55 187.925 113.871 187.804 114.252 187.804C114.651 187.804 114.972 187.925 115.214 188.168C115.457 188.411 115.578 188.731 115.578 189.13V200.7C115.578 201.081 115.457 201.402 115.214 201.662C114.972 201.905 114.651 202.026 114.252 202.026ZM122.936 202.026C122.555 202.026 122.234 201.905 121.974 201.662C121.732 201.402 121.61 201.081 121.61 200.7V193.264C121.61 192.172 121.342 191.366 120.804 190.846C120.267 190.309 119.565 190.04 118.698 190.04C117.797 190.04 117.052 190.352 116.462 190.976C115.873 191.6 115.578 192.397 115.578 193.368H113.94C113.94 192.241 114.166 191.253 114.616 190.404C115.067 189.537 115.691 188.861 116.488 188.376C117.286 187.891 118.196 187.648 119.218 187.648C120.206 187.648 121.082 187.865 121.844 188.298C122.607 188.731 123.196 189.373 123.612 190.222C124.046 191.054 124.262 192.068 124.262 193.264V200.7C124.262 201.081 124.141 201.402 123.898 201.662C123.656 201.905 123.335 202.026 122.936 202.026ZM143.307 202.13C142.111 202.13 141.036 201.879 140.083 201.376C139.147 200.856 138.401 200.102 137.847 199.114C137.309 198.126 137.041 196.913 137.041 195.474V189.078C137.041 188.697 137.162 188.385 137.405 188.142C137.665 187.882 137.985 187.752 138.367 187.752C138.748 187.752 139.06 187.882 139.303 188.142C139.563 188.385 139.693 188.697 139.693 189.078V195.474C139.693 196.445 139.875 197.251 140.239 197.892C140.603 198.516 141.097 198.984 141.721 199.296C142.345 199.591 143.047 199.738 143.827 199.738C144.572 199.738 145.231 199.591 145.803 199.296C146.392 199.001 146.86 198.603 147.207 198.1C147.553 197.597 147.727 197.034 147.727 196.41H149.365C149.365 197.485 149.096 198.455 148.559 199.322C148.039 200.189 147.319 200.873 146.401 201.376C145.499 201.879 144.468 202.13 143.307 202.13ZM149.053 202C148.671 202 148.351 201.879 148.091 201.636C147.848 201.376 147.727 201.055 147.727 200.674V189.078C147.727 188.679 147.848 188.359 148.091 188.116C148.351 187.873 148.671 187.752 149.053 187.752C149.451 187.752 149.772 187.873 150.015 188.116C150.257 188.359 150.379 188.679 150.379 189.078V200.674C150.379 201.055 150.257 201.376 150.015 201.636C149.772 201.879 149.451 202 149.053 202ZM156.375 208.084C155.994 208.084 155.673 207.954 155.413 207.694C155.171 207.451 155.049 207.139 155.049 206.758V194.902C155.067 193.533 155.387 192.302 156.011 191.21C156.635 190.118 157.485 189.26 158.559 188.636C159.634 187.995 160.847 187.674 162.199 187.674C163.569 187.674 164.791 187.995 165.865 188.636C166.94 189.26 167.789 190.118 168.413 191.21C169.055 192.302 169.375 193.533 169.375 194.902C169.375 196.271 169.081 197.502 168.491 198.594C167.919 199.669 167.131 200.527 166.125 201.168C165.12 201.792 163.985 202.104 162.719 202.104C161.697 202.104 160.752 201.896 159.885 201.48C159.036 201.047 158.308 200.466 157.701 199.738V206.758C157.701 207.139 157.58 207.451 157.337 207.694C157.095 207.954 156.774 208.084 156.375 208.084ZM162.199 199.764C163.083 199.764 163.872 199.556 164.565 199.14C165.259 198.707 165.805 198.126 166.203 197.398C166.619 196.653 166.827 195.821 166.827 194.902C166.827 193.966 166.619 193.134 166.203 192.406C165.805 191.661 165.259 191.08 164.565 190.664C163.872 190.231 163.083 190.014 162.199 190.014C161.333 190.014 160.544 190.231 159.833 190.664C159.14 191.08 158.594 191.661 158.195 192.406C157.797 193.134 157.597 193.966 157.597 194.902C157.597 195.821 157.797 196.653 158.195 197.398C158.594 198.126 159.14 198.707 159.833 199.14C160.544 199.556 161.333 199.764 162.199 199.764ZM179.779 202.104C178.375 202.104 177.135 201.801 176.061 201.194C174.986 200.57 174.137 199.721 173.513 198.646C172.906 197.554 172.603 196.306 172.603 194.902C172.603 193.481 172.906 192.233 173.513 191.158C174.137 190.066 174.986 189.217 176.061 188.61C177.135 187.986 178.375 187.674 179.779 187.674C181.165 187.674 182.396 187.986 183.471 188.61C184.545 189.217 185.386 190.066 185.993 191.158C186.617 192.233 186.929 193.481 186.929 194.902C186.929 196.306 186.625 197.554 186.019 198.646C185.412 199.721 184.571 200.57 183.497 201.194C182.422 201.801 181.183 202.104 179.779 202.104ZM179.779 199.764C180.68 199.764 181.477 199.556 182.171 199.14C182.864 198.724 183.401 198.152 183.783 197.424C184.181 196.696 184.381 195.855 184.381 194.902C184.381 193.949 184.181 193.108 183.783 192.38C183.401 191.635 182.864 191.054 182.171 190.638C181.477 190.222 180.68 190.014 179.779 190.014C178.877 190.014 178.08 190.222 177.387 190.638C176.693 191.054 176.147 191.635 175.749 192.38C175.35 193.108 175.151 193.949 175.151 194.902C175.151 195.855 175.35 196.696 175.749 197.424C176.147 198.152 176.693 198.724 177.387 199.14C178.08 199.556 178.877 199.764 179.779 199.764ZM192.202 202C191.82 202 191.5 201.879 191.24 201.636C190.997 201.376 190.876 201.055 190.876 200.674V189.078C190.91 188.697 191.049 188.385 191.292 188.142C191.534 187.899 191.838 187.778 192.202 187.778C192.6 187.778 192.921 187.899 193.164 188.142C193.406 188.385 193.528 188.705 193.528 189.104V193.576H198.572V194.096C199.525 194.096 200.366 194.261 201.094 194.59C201.839 194.919 202.42 195.379 202.836 195.968C203.252 196.54 203.46 197.207 203.46 197.97C203.46 198.75 203.252 199.443 202.836 200.05C202.42 200.657 201.839 201.133 201.094 201.48C200.366 201.827 199.525 202 198.572 202H192.202ZM193.528 199.53H198.572C199.265 199.53 199.828 199.365 200.262 199.036C200.695 198.689 200.912 198.247 200.912 197.71C200.912 197.138 200.695 196.67 200.262 196.306C199.828 195.942 199.265 195.76 198.572 195.76H193.528V199.53ZM196.518 194.98V193.576H198.988C199.421 193.576 199.776 193.411 200.054 193.082C200.331 192.735 200.47 192.302 200.47 191.782C200.47 191.331 200.305 190.959 199.976 190.664C199.646 190.369 199.23 190.222 198.728 190.222H192.228V187.778H198.728C199.542 187.778 200.262 187.943 200.886 188.272C201.527 188.584 202.03 189.026 202.394 189.598C202.758 190.153 202.94 190.794 202.94 191.522C202.94 192.527 202.558 193.359 201.796 194.018C201.05 194.659 200.114 194.98 198.988 194.98H196.518ZM212.647 202.104C211.382 202.104 210.247 201.792 209.241 201.168C208.236 200.527 207.439 199.669 206.849 198.594C206.277 197.502 205.991 196.271 205.991 194.902C205.991 193.533 206.303 192.302 206.927 191.21C207.569 190.118 208.427 189.26 209.501 188.636C210.593 187.995 211.815 187.674 213.167 187.674C214.519 187.674 215.733 187.995 216.807 188.636C217.882 189.26 218.731 190.118 219.355 191.21C219.997 192.302 220.317 193.533 220.317 194.902H219.303C219.303 196.271 219.009 197.502 218.419 198.594C217.847 199.669 217.059 200.527 216.053 201.168C215.048 201.792 213.913 202.104 212.647 202.104ZM213.167 199.764C214.051 199.764 214.84 199.556 215.533 199.14C216.227 198.707 216.773 198.126 217.171 197.398C217.57 196.653 217.769 195.821 217.769 194.902C217.769 193.966 217.57 193.134 217.171 192.406C216.773 191.661 216.227 191.08 215.533 190.664C214.84 190.231 214.051 190.014 213.167 190.014C212.301 190.014 211.512 190.231 210.801 190.664C210.108 191.08 209.553 191.661 209.137 192.406C208.739 193.134 208.539 193.966 208.539 194.902C208.539 195.821 208.739 196.653 209.137 197.398C209.553 198.126 210.108 198.707 210.801 199.14C211.512 199.556 212.301 199.764 213.167 199.764ZM218.991 202.026C218.61 202.026 218.289 201.905 218.029 201.662C217.787 201.402 217.665 201.081 217.665 200.7V196.722L218.159 193.966L220.317 194.902V200.7C220.317 201.081 220.187 201.402 219.927 201.662C219.685 201.905 219.373 202.026 218.991 202.026ZM236.224 202C235.843 202 235.522 201.879 235.262 201.636C235.02 201.376 234.898 201.055 234.898 200.674V189.104C234.898 188.705 235.02 188.385 235.262 188.142C235.522 187.899 235.843 187.778 236.224 187.778C236.623 187.778 236.935 187.899 237.16 188.142C237.386 188.385 237.498 188.705 237.498 189.104V200.674C237.498 201.055 237.386 201.376 237.16 201.636C236.935 201.879 236.623 202 236.224 202ZM225.538 202C225.157 202 224.845 201.879 224.602 201.636C224.377 201.376 224.264 201.055 224.264 200.674V189.104C224.264 188.705 224.377 188.385 224.602 188.142C224.845 187.899 225.157 187.778 225.538 187.778C225.937 187.778 226.258 187.899 226.5 188.142C226.743 188.385 226.864 188.705 226.864 189.104V200.674C226.864 201.055 226.743 201.376 226.5 201.636C226.258 201.879 225.937 202 225.538 202ZM226.526 195.786V193.446H235.652V195.786H226.526ZM248.17 202.13C246.974 202.13 245.899 201.879 244.946 201.376C244.01 200.856 243.265 200.102 242.71 199.114C242.173 198.126 241.904 196.913 241.904 195.474V189.078C241.904 188.697 242.025 188.385 242.268 188.142C242.528 187.882 242.849 187.752 243.23 187.752C243.611 187.752 243.923 187.882 244.166 188.142C244.426 188.385 244.556 188.697 244.556 189.078V195.474C244.556 196.445 244.738 197.251 245.102 197.892C245.466 198.516 245.96 198.984 246.584 199.296C247.208 199.591 247.91 199.738 248.69 199.738C249.435 199.738 250.094 199.591 250.666 199.296C251.255 199.001 251.723 198.603 252.07 198.1C252.417 197.597 252.59 197.034 252.59 196.41H254.228C254.228 197.485 253.959 198.455 253.422 199.322C252.902 200.189 252.183 200.873 251.264 201.376C250.363 201.879 249.331 202.13 248.17 202.13ZM253.916 202C253.535 202 253.214 201.879 252.954 201.636C252.711 201.376 252.59 201.055 252.59 200.674V189.078C252.59 188.679 252.711 188.359 252.954 188.116C253.214 187.873 253.535 187.752 253.916 187.752C254.315 187.752 254.635 187.873 254.878 188.116C255.121 188.359 255.242 188.679 255.242 189.078V200.674C255.242 201.055 255.121 201.376 254.878 201.636C254.635 201.879 254.315 202 253.916 202ZM266.595 202.104C265.156 202.104 263.873 201.801 262.747 201.194C261.637 200.57 260.762 199.721 260.121 198.646C259.497 197.554 259.185 196.306 259.185 194.902C259.185 193.481 259.479 192.233 260.069 191.158C260.675 190.066 261.507 189.217 262.565 188.61C263.622 187.986 264.835 187.674 266.205 187.674C267.557 187.674 268.718 187.977 269.689 188.584C270.659 189.173 271.396 189.997 271.899 191.054C272.419 192.094 272.679 193.299 272.679 194.668C272.679 194.997 272.566 195.275 272.341 195.5C272.115 195.708 271.829 195.812 271.483 195.812H261.005V193.732H271.405L270.339 194.46C270.321 193.593 270.148 192.822 269.819 192.146C269.489 191.453 269.021 190.907 268.415 190.508C267.808 190.109 267.071 189.91 266.205 189.91C265.217 189.91 264.367 190.127 263.657 190.56C262.963 190.993 262.435 191.591 262.071 192.354C261.707 193.099 261.525 193.949 261.525 194.902C261.525 195.855 261.741 196.705 262.175 197.45C262.608 198.195 263.206 198.785 263.969 199.218C264.731 199.651 265.607 199.868 266.595 199.868C267.132 199.868 267.678 199.773 268.233 199.582C268.805 199.374 269.264 199.14 269.611 198.88C269.871 198.689 270.148 198.594 270.443 198.594C270.755 198.577 271.023 198.663 271.249 198.854C271.543 199.114 271.699 199.4 271.717 199.712C271.734 200.024 271.595 200.293 271.301 200.518C270.711 200.986 269.975 201.367 269.091 201.662C268.224 201.957 267.392 202.104 266.595 202.104Z" fill="white"/>
<path d="M337.224 125H240.764V89.7705C240.764 87.9639 240.959 86.0596 241.35 84.0576C241.789 82.0068 242.448 79.9805 243.327 77.9785C244.206 75.9766 245.329 74.0723 246.696 72.2656C248.112 70.459 249.797 68.8721 251.75 67.5049C253.752 66.0889 256.047 64.9658 258.635 64.1357C261.223 63.3057 264.152 62.8906 267.424 62.8906H310.344C312.932 62.8906 314.836 62.2559 316.057 60.9863C317.326 59.668 317.961 57.7637 317.961 55.2734V46.8506C317.961 44.2627 317.326 42.3096 316.057 40.9912C314.787 39.6729 312.932 39.0137 310.49 39.0137H249.333V19.9707H310.49C313.713 19.9707 316.618 20.3857 319.206 21.2158C321.794 22.0459 324.064 23.1689 326.018 24.585C328.02 25.9521 329.729 27.5391 331.145 29.3457C332.561 31.1523 333.708 33.0566 334.587 35.0586C335.515 37.0117 336.174 39.0137 336.564 41.0645C337.004 43.0664 337.224 44.9463 337.224 46.7041V55.2734C337.224 60.2051 336.32 64.3799 334.514 67.7979C332.756 71.167 330.534 73.9258 327.849 76.0742C325.163 78.1738 322.258 79.7119 319.133 80.6885C316.057 81.6162 313.176 82.0801 310.49 82.0801H267.424C265.861 82.0801 264.616 82.2998 263.688 82.7393C262.761 83.1787 262.028 83.7646 261.491 84.4971C261.003 85.2295 260.637 86.0596 260.393 86.9873C260.148 87.915 259.953 88.8428 259.807 89.7705V105.957H337.224V125Z" fill="white" fill-opacity="0.35"/>
</svg>
