<svg width="360" height="230" viewBox="0 0 360 230" fill="none" xmlns="http://www.w3.org/2000/svg">
<rect x="0.5" y="0.5" width="359" height="229" fill="#111111" stroke="white"/>
<path d="M29.952 172.969C29.5707 172.969 29.25 172.839 28.99 172.579C28.73 172.319 28.6 171.999 28.6 171.617V154.015C28.6 153.617 28.73 153.296 28.99 153.053C29.25 152.793 29.5707 152.663 29.952 152.663H35.152C36.452 152.663 37.6047 152.949 38.61 153.521C39.6153 154.093 40.3953 154.891 40.95 155.913C41.522 156.919 41.808 158.08 41.808 159.397C41.808 160.663 41.522 161.789 40.95 162.777C40.3953 163.765 39.6153 164.537 38.61 165.091C37.6047 165.646 36.452 165.923 35.152 165.923H31.304V171.617C31.304 171.999 31.174 172.319 30.914 172.579C30.6713 172.839 30.3507 172.969 29.952 172.969ZM31.304 163.427H35.152C35.9493 163.427 36.6513 163.254 37.258 162.907C37.8647 162.561 38.3413 162.084 38.688 161.477C39.0347 160.871 39.208 160.177 39.208 159.397C39.208 158.565 39.0347 157.837 38.688 157.213C38.3413 156.572 37.8647 156.069 37.258 155.705C36.6513 155.341 35.9493 155.159 35.152 155.159H31.304V163.427ZM49.9594 173.073C48.6941 173.073 47.5587 172.761 46.5534 172.137C45.5481 171.496 44.7507 170.638 44.1614 169.563C43.5894 168.471 43.3034 167.241 43.3034 165.871C43.3034 164.502 43.6154 163.271 44.2394 162.179C44.8807 161.087 45.7387 160.229 46.8134 159.605C47.9054 158.964 49.1274 158.643 50.4794 158.643C51.8314 158.643 53.0447 158.964 54.1194 159.605C55.1941 160.229 56.0434 161.087 56.6674 162.179C57.3087 163.271 57.6294 164.502 57.6294 165.871H56.6154C56.6154 167.241 56.3207 168.471 55.7314 169.563C55.1594 170.638 54.3707 171.496 53.3654 172.137C52.3601 172.761 51.2247 173.073 49.9594 173.073ZM50.4794 170.733C51.3634 170.733 52.1521 170.525 52.8454 170.109C53.5387 169.676 54.0847 169.095 54.4834 168.367C54.8821 167.622 55.0814 166.79 55.0814 165.871C55.0814 164.935 54.8821 164.103 54.4834 163.375C54.0847 162.63 53.5387 162.049 52.8454 161.633C52.1521 161.2 51.3634 160.983 50.4794 160.983C49.6127 160.983 48.8241 161.2 48.1134 161.633C47.4201 162.049 46.8654 162.63 46.4494 163.375C46.0507 164.103 45.8514 164.935 45.8514 165.871C45.8514 166.79 46.0507 167.622 46.4494 168.367C46.8654 169.095 47.4201 169.676 48.1134 170.109C48.8241 170.525 49.6127 170.733 50.4794 170.733ZM56.3034 172.995C55.9221 172.995 55.6014 172.874 55.3414 172.631C55.0987 172.371 54.9774 172.051 54.9774 171.669V167.691L55.4714 164.935L57.6294 165.871V171.669C57.6294 172.051 57.4994 172.371 57.2394 172.631C56.9967 172.874 56.6847 172.995 56.3034 172.995ZM66.4383 173.177C65.6063 173.177 64.835 173.091 64.1243 172.917C63.431 172.744 62.7983 172.51 62.2263 172.215C61.6717 171.903 61.1863 171.565 60.7703 171.201C60.493 170.941 60.3543 170.638 60.3543 170.291C60.3543 169.927 60.5017 169.633 60.7963 169.407C61.0563 169.199 61.3683 169.113 61.7323 169.147C62.1137 169.165 62.4343 169.295 62.6943 169.537C63.1103 169.901 63.6303 170.213 64.2543 170.473C64.8783 170.716 65.5977 170.837 66.4123 170.837C67.3657 170.837 68.1197 170.638 68.6743 170.239C69.2463 169.823 69.5323 169.295 69.5323 168.653C69.5323 168.081 69.3243 167.631 68.9083 167.301C68.5097 166.955 68.007 166.773 67.4003 166.755H65.9183C65.537 166.755 65.2163 166.651 64.9563 166.443C64.6963 166.235 64.5663 165.984 64.5663 165.689C64.5663 165.395 64.6963 165.152 64.9563 164.961C65.2163 164.771 65.537 164.675 65.9183 164.675H67.3743C67.9463 164.641 68.371 164.45 68.6483 164.103C68.943 163.757 69.0903 163.323 69.0903 162.803C69.0903 162.231 68.8477 161.781 68.3623 161.451C67.877 161.122 67.175 160.957 66.2563 160.957C65.511 160.957 64.835 161.061 64.2283 161.269C63.6217 161.477 63.119 161.781 62.7203 162.179C62.443 162.457 62.1397 162.613 61.8103 162.647C61.4983 162.665 61.195 162.561 60.9003 162.335C60.675 162.162 60.571 161.911 60.5883 161.581C60.623 161.252 60.7703 160.949 61.0303 160.671C61.585 160.065 62.3303 159.571 63.2663 159.189C64.2023 158.808 65.1817 158.617 66.2043 158.617C67.2617 158.617 68.1977 158.799 69.0123 159.163C69.827 159.527 70.4683 160.013 70.9363 160.619C71.4043 161.226 71.6383 161.893 71.6383 162.621C71.6383 163.228 71.4737 163.765 71.1443 164.233C70.8323 164.684 70.4077 165.039 69.8703 165.299C69.3503 165.542 68.7697 165.663 68.1283 165.663V165.455C68.8737 165.455 69.541 165.603 70.1303 165.897C70.737 166.192 71.2137 166.591 71.5603 167.093C71.907 167.579 72.0803 168.142 72.0803 168.783C72.0803 169.615 71.829 170.361 71.3263 171.019C70.841 171.678 70.1737 172.207 69.3243 172.605C68.475 172.987 67.513 173.177 66.4383 173.177ZM81.266 173.073C80.0007 173.073 78.8654 172.761 77.86 172.137C76.8547 171.496 76.0574 170.638 75.468 169.563C74.896 168.471 74.61 167.241 74.61 165.871C74.61 164.502 74.922 163.271 75.546 162.179C76.1874 161.087 77.0454 160.229 78.12 159.605C79.212 158.964 80.434 158.643 81.786 158.643C83.138 158.643 84.3514 158.964 85.426 159.605C86.5007 160.229 87.35 161.087 87.974 162.179C88.6154 163.271 88.936 164.502 88.936 165.871H87.922C87.922 167.241 87.6274 168.471 87.038 169.563C86.466 170.638 85.6774 171.496 84.672 172.137C83.6667 172.761 82.5314 173.073 81.266 173.073ZM81.786 170.733C82.67 170.733 83.4587 170.525 84.152 170.109C84.8454 169.676 85.3914 169.095 85.79 168.367C86.1887 167.622 86.388 166.79 86.388 165.871C86.388 164.935 86.1887 164.103 85.79 163.375C85.3914 162.63 84.8454 162.049 84.152 161.633C83.4587 161.2 82.67 160.983 81.786 160.983C80.9194 160.983 80.1307 161.2 79.42 161.633C78.7267 162.049 78.172 162.63 77.756 163.375C77.3574 164.103 77.158 164.935 77.158 165.871C77.158 166.79 77.3574 167.622 77.756 168.367C78.172 169.095 78.7267 169.676 79.42 170.109C80.1307 170.525 80.9194 170.733 81.786 170.733ZM87.61 172.995C87.2287 172.995 86.908 172.874 86.648 172.631C86.4054 172.371 86.284 172.051 86.284 171.669V167.691L86.778 164.935L88.936 165.871V171.669C88.936 172.051 88.806 172.371 88.546 172.631C88.3034 172.874 87.9914 172.995 87.61 172.995ZM94.209 179.053C93.8276 179.053 93.507 178.923 93.247 178.663C93.0043 178.421 92.883 178.109 92.883 177.727V165.871C92.9003 164.502 93.221 163.271 93.845 162.179C94.469 161.087 95.3183 160.229 96.393 159.605C97.4676 158.964 98.681 158.643 100.033 158.643C101.402 158.643 102.624 158.964 103.699 159.605C104.774 160.229 105.623 161.087 106.247 162.179C106.888 163.271 107.209 164.502 107.209 165.871C107.209 167.241 106.914 168.471 106.325 169.563C105.753 170.638 104.964 171.496 103.959 172.137C102.954 172.761 101.818 173.073 100.553 173.073C99.5303 173.073 98.5856 172.865 97.719 172.449C96.8696 172.016 96.1416 171.435 95.535 170.707V177.727C95.535 178.109 95.4136 178.421 95.171 178.663C94.9283 178.923 94.6076 179.053 94.209 179.053ZM100.033 170.733C100.917 170.733 101.706 170.525 102.399 170.109C103.092 169.676 103.638 169.095 104.037 168.367C104.453 167.622 104.661 166.79 104.661 165.871C104.661 164.935 104.453 164.103 104.037 163.375C103.638 162.63 103.092 162.049 102.399 161.633C101.706 161.2 100.917 160.983 100.033 160.983C99.1663 160.983 98.3776 161.2 97.667 161.633C96.9736 162.049 96.4276 162.63 96.029 163.375C95.6303 164.103 95.431 164.935 95.431 165.871C95.431 166.79 95.6303 167.622 96.029 168.367C96.4276 169.095 96.9736 169.676 97.667 170.109C98.3776 170.525 99.1663 170.733 100.033 170.733ZM117.092 173.073C115.827 173.073 114.692 172.761 113.686 172.137C112.681 171.496 111.884 170.638 111.294 169.563C110.722 168.471 110.436 167.241 110.436 165.871C110.436 164.502 110.748 163.271 111.372 162.179C112.014 161.087 112.872 160.229 113.946 159.605C115.038 158.964 116.26 158.643 117.612 158.643C118.964 158.643 120.178 158.964 121.252 159.605C122.327 160.229 123.176 161.087 123.8 162.179C124.442 163.271 124.762 164.502 124.762 165.871H123.748C123.748 167.241 123.454 168.471 122.864 169.563C122.292 170.638 121.504 171.496 120.498 172.137C119.493 172.761 118.358 173.073 117.092 173.073ZM117.612 170.733C118.496 170.733 119.285 170.525 119.978 170.109C120.672 169.676 121.218 169.095 121.616 168.367C122.015 167.622 122.214 166.79 122.214 165.871C122.214 164.935 122.015 164.103 121.616 163.375C121.218 162.63 120.672 162.049 119.978 161.633C119.285 161.2 118.496 160.983 117.612 160.983C116.746 160.983 115.957 161.2 115.246 161.633C114.553 162.049 113.998 162.63 113.582 163.375C113.184 164.103 112.984 164.935 112.984 165.871C112.984 166.79 113.184 167.622 113.582 168.367C113.998 169.095 114.553 169.676 115.246 170.109C115.957 170.525 116.746 170.733 117.612 170.733ZM123.436 172.995C123.055 172.995 122.734 172.874 122.474 172.631C122.232 172.371 122.11 172.051 122.11 171.669V167.691L122.604 164.935L124.762 165.871V171.669C124.762 172.051 124.632 172.371 124.372 172.631C124.13 172.874 123.818 172.995 123.436 172.995ZM135.209 173.073C133.822 173.073 132.592 172.787 131.517 172.215C130.442 171.643 129.602 170.855 128.995 169.849C128.388 168.827 128.076 167.665 128.059 166.365H129.333C129.333 165.048 129.602 163.895 130.139 162.907C130.694 161.902 131.448 161.113 132.401 160.541C133.372 159.969 134.481 159.683 135.729 159.683C136.977 159.683 138.078 159.969 139.031 160.541C140.002 161.113 140.756 161.902 141.293 162.907C141.848 163.895 142.125 165.048 142.125 166.365C142.125 167.665 141.83 168.827 141.241 169.849C140.652 170.855 139.837 171.643 138.797 172.215C137.757 172.787 136.561 173.073 135.209 173.073ZM135.209 170.733C136.076 170.733 136.83 170.551 137.471 170.187C138.13 169.806 138.641 169.286 139.005 168.627C139.386 167.969 139.577 167.215 139.577 166.365C139.577 165.516 139.386 164.771 139.005 164.129C138.641 163.471 138.13 162.959 137.471 162.595C136.83 162.214 136.076 162.023 135.209 162.023C134.308 162.023 133.51 162.214 132.817 162.595C132.124 162.959 131.578 163.471 131.179 164.129C130.798 164.771 130.607 165.516 130.607 166.365C130.607 167.215 130.798 167.969 131.179 168.627C131.578 169.286 132.124 169.806 132.817 170.187C133.51 170.551 134.308 170.733 135.209 170.733ZM128.059 166.365L128.085 163.427C128.102 161.382 128.666 159.51 129.775 157.811C130.902 156.113 132.644 154.735 135.001 153.677L139.863 151.519C140.21 151.381 140.522 151.363 140.799 151.467C141.076 151.554 141.276 151.753 141.397 152.065C141.518 152.395 141.544 152.698 141.475 152.975C141.423 153.235 141.172 153.469 140.721 153.677L135.443 156.095C134.23 156.65 133.233 157.309 132.453 158.071C131.673 158.834 131.092 159.692 130.711 160.645C130.347 161.581 130.148 162.595 130.113 163.687L130.061 166.365H128.059ZM152.524 173.073C151.12 173.073 149.881 172.77 148.806 172.163C147.732 171.539 146.882 170.69 146.258 169.615C145.652 168.523 145.348 167.275 145.348 165.871C145.348 164.45 145.652 163.202 146.258 162.127C146.882 161.035 147.732 160.186 148.806 159.579C149.881 158.955 151.12 158.643 152.524 158.643C153.911 158.643 155.142 158.955 156.216 159.579C157.291 160.186 158.132 161.035 158.738 162.127C159.362 163.202 159.674 164.45 159.674 165.871C159.674 167.275 159.371 168.523 158.764 169.615C158.158 170.69 157.317 171.539 156.242 172.163C155.168 172.77 153.928 173.073 152.524 173.073ZM152.524 170.733C153.426 170.733 154.223 170.525 154.916 170.109C155.61 169.693 156.147 169.121 156.528 168.393C156.927 167.665 157.126 166.825 157.126 165.871C157.126 164.918 156.927 164.077 156.528 163.349C156.147 162.604 155.61 162.023 154.916 161.607C154.223 161.191 153.426 160.983 152.524 160.983C151.623 160.983 150.826 161.191 150.132 161.607C149.439 162.023 148.893 162.604 148.494 163.349C148.096 164.077 147.896 164.918 147.896 165.871C147.896 166.825 148.096 167.665 148.494 168.393C148.893 169.121 149.439 169.693 150.132 170.109C150.826 170.525 151.623 170.733 152.524 170.733ZM182.289 172.995C181.908 172.995 181.587 172.874 181.327 172.631C181.085 172.371 180.963 172.051 180.963 171.669V164.233C180.963 163.141 180.695 162.335 180.157 161.815C179.62 161.278 178.918 161.009 178.051 161.009C177.15 161.009 176.405 161.321 175.815 161.945C175.243 162.569 174.957 163.367 174.957 164.337H172.799C172.799 163.211 173.042 162.223 173.527 161.373C174.013 160.507 174.689 159.831 175.555 159.345C176.439 158.86 177.445 158.617 178.571 158.617C179.559 158.617 180.435 158.834 181.197 159.267C181.96 159.701 182.549 160.342 182.965 161.191C183.399 162.023 183.615 163.037 183.615 164.233V171.669C183.615 172.051 183.494 172.371 183.251 172.631C183.009 172.874 182.688 172.995 182.289 172.995ZM164.947 172.995C164.566 172.995 164.245 172.874 163.985 172.631C163.743 172.371 163.621 172.051 163.621 171.669V160.099C163.621 159.701 163.743 159.38 163.985 159.137C164.245 158.895 164.566 158.773 164.947 158.773C165.346 158.773 165.667 158.895 165.909 159.137C166.152 159.38 166.273 159.701 166.273 160.099V171.669C166.273 172.051 166.152 172.371 165.909 172.631C165.667 172.874 165.346 172.995 164.947 172.995ZM173.631 172.995C173.25 172.995 172.929 172.874 172.669 172.631C172.427 172.371 172.305 172.051 172.305 171.669V164.233C172.305 163.141 172.037 162.335 171.499 161.815C170.962 161.278 170.26 161.009 169.393 161.009C168.492 161.009 167.747 161.321 167.157 161.945C166.568 162.569 166.273 163.367 166.273 164.337H164.635C164.635 163.211 164.861 162.223 165.311 161.373C165.762 160.507 166.386 159.831 167.183 159.345C167.981 158.86 168.891 158.617 169.913 158.617C170.901 158.617 171.777 158.834 172.539 159.267C173.302 159.701 173.891 160.342 174.307 161.191C174.741 162.023 174.957 163.037 174.957 164.233V171.669C174.957 172.051 174.836 172.371 174.593 172.631C174.351 172.874 174.03 172.995 173.631 172.995ZM199.566 172.657C199.34 172.865 199.02 172.969 198.604 172.969C198.205 172.952 197.893 172.831 197.668 172.605L191.35 165.819L197.304 159.163C197.529 158.921 197.841 158.782 198.24 158.747C198.656 158.713 198.976 158.799 199.202 159.007C199.462 159.25 199.609 159.527 199.644 159.839C199.678 160.134 199.583 160.403 199.358 160.645L194.652 165.689L199.644 171.045C199.869 171.271 199.982 171.539 199.982 171.851C199.982 172.146 199.843 172.415 199.566 172.657ZM189.27 172.995C188.888 172.995 188.585 172.874 188.36 172.631C188.134 172.371 188.022 172.051 188.022 171.669V160.073C188.022 159.675 188.134 159.354 188.36 159.111C188.585 158.869 188.888 158.747 189.27 158.747C189.668 158.747 189.989 158.869 190.232 159.111C190.492 159.354 190.622 159.675 190.622 160.073V164.415H193.95V166.859H190.622V171.669C190.622 172.051 190.492 172.371 190.232 172.631C189.989 172.874 189.668 172.995 189.27 172.995ZM207.864 173.073C206.598 173.073 205.463 172.761 204.458 172.137C203.452 171.496 202.655 170.638 202.066 169.563C201.494 168.471 201.208 167.241 201.208 165.871C201.208 164.502 201.52 163.271 202.144 162.179C202.785 161.087 203.643 160.229 204.718 159.605C205.81 158.964 207.032 158.643 208.384 158.643C209.736 158.643 210.949 158.964 212.024 159.605C213.098 160.229 213.948 161.087 214.572 162.179C215.213 163.271 215.534 164.502 215.534 165.871H214.52C214.52 167.241 214.225 168.471 213.636 169.563C213.064 170.638 212.275 171.496 211.27 172.137C210.264 172.761 209.129 173.073 207.864 173.073ZM208.384 170.733C209.268 170.733 210.056 170.525 210.75 170.109C211.443 169.676 211.989 169.095 212.388 168.367C212.786 167.622 212.986 166.79 212.986 165.871C212.986 164.935 212.786 164.103 212.388 163.375C211.989 162.63 211.443 162.049 210.75 161.633C210.056 161.2 209.268 160.983 208.384 160.983C207.517 160.983 206.728 161.2 206.018 161.633C205.324 162.049 204.77 162.63 204.354 163.375C203.955 164.103 203.756 164.935 203.756 165.871C203.756 166.79 203.955 167.622 204.354 168.367C204.77 169.095 205.324 169.676 206.018 170.109C206.728 170.525 207.517 170.733 208.384 170.733ZM214.208 172.995C213.826 172.995 213.506 172.874 213.246 172.631C213.003 172.371 212.882 172.051 212.882 171.669V167.691L213.376 164.935L215.534 165.871V171.669C215.534 172.051 215.404 172.371 215.144 172.631C214.901 172.874 214.589 172.995 214.208 172.995ZM39.884 201.657C39.6587 201.865 39.338 201.969 38.922 201.969C38.5233 201.952 38.2113 201.831 37.986 201.605L31.668 194.819L37.622 188.163C37.8473 187.921 38.1593 187.782 38.558 187.747C38.974 187.713 39.2947 187.799 39.52 188.007C39.78 188.25 39.9273 188.527 39.962 188.839C39.9967 189.134 39.9013 189.403 39.676 189.645L34.97 194.689L39.962 200.045C40.1873 200.271 40.3 200.539 40.3 200.851C40.3 201.146 40.1613 201.415 39.884 201.657ZM29.588 201.995C29.2067 201.995 28.9033 201.874 28.678 201.631C28.4527 201.371 28.34 201.051 28.34 200.669V189.073C28.34 188.675 28.4527 188.354 28.678 188.111C28.9033 187.869 29.2067 187.747 29.588 187.747C29.9867 187.747 30.3073 187.869 30.55 188.111C30.81 188.354 30.94 188.675 30.94 189.073V193.415H34.268V195.859H30.94V200.669C30.94 201.051 30.81 201.371 30.55 201.631C30.3073 201.874 29.9867 201.995 29.588 201.995ZM48.7021 202.073C47.2981 202.073 46.0587 201.77 44.9841 201.163C43.9094 200.539 43.0601 199.69 42.4361 198.615C41.8294 197.523 41.5261 196.275 41.5261 194.871C41.5261 193.45 41.8294 192.202 42.4361 191.127C43.0601 190.035 43.9094 189.186 44.9841 188.579C46.0587 187.955 47.2981 187.643 48.7021 187.643C50.0887 187.643 51.3194 187.955 52.3941 188.579C53.4687 189.186 54.3094 190.035 54.9161 191.127C55.5401 192.202 55.8521 193.45 55.8521 194.871C55.8521 196.275 55.5487 197.523 54.9421 198.615C54.3354 199.69 53.4947 200.539 52.4201 201.163C51.3454 201.77 50.1061 202.073 48.7021 202.073ZM48.7021 199.733C49.6034 199.733 50.4007 199.525 51.0941 199.109C51.7874 198.693 52.3247 198.121 52.7061 197.393C53.1047 196.665 53.3041 195.825 53.3041 194.871C53.3041 193.918 53.1047 193.077 52.7061 192.349C52.3247 191.604 51.7874 191.023 51.0941 190.607C50.4007 190.191 49.6034 189.983 48.7021 189.983C47.8007 189.983 47.0034 190.191 46.3101 190.607C45.6167 191.023 45.0707 191.604 44.6721 192.349C44.2734 193.077 44.0741 193.918 44.0741 194.871C44.0741 195.825 44.2734 196.665 44.6721 197.393C45.0707 198.121 45.6167 198.693 46.3101 199.109C47.0034 199.525 47.8007 199.733 48.7021 199.733ZM71.759 201.969C71.3777 201.969 71.057 201.848 70.797 201.605C70.5543 201.345 70.433 201.025 70.433 200.643V189.073C70.433 188.675 70.5543 188.354 70.797 188.111C71.057 187.869 71.3777 187.747 71.759 187.747C72.1577 187.747 72.4697 187.869 72.695 188.111C72.9203 188.354 73.033 188.675 73.033 189.073V200.643C73.033 201.025 72.9203 201.345 72.695 201.605C72.4697 201.848 72.1577 201.969 71.759 201.969ZM61.073 201.969C60.6917 201.969 60.3797 201.848 60.137 201.605C59.9117 201.345 59.799 201.025 59.799 200.643V189.073C59.799 188.675 59.9117 188.354 60.137 188.111C60.3797 187.869 60.6917 187.747 61.073 187.747C61.4717 187.747 61.7923 187.869 62.035 188.111C62.2777 188.354 62.399 188.675 62.399 189.073V200.643C62.399 201.025 62.2777 201.345 62.035 201.605C61.7923 201.848 61.4717 201.969 61.073 201.969ZM62.061 195.755V193.415H71.187V195.755H62.061ZM83.7048 202.099C82.4914 202.099 81.4081 201.813 80.4548 201.241C79.5188 200.669 78.7821 199.889 78.2448 198.901C77.7074 197.896 77.4388 196.743 77.4388 195.443V189.047C77.4388 188.649 77.5601 188.328 77.8028 188.085C78.0628 187.843 78.3834 187.721 78.7648 187.721C79.1634 187.721 79.4841 187.843 79.7268 188.085C79.9694 188.328 80.0908 188.649 80.0908 189.047V195.443C80.0908 196.275 80.2641 197.012 80.6108 197.653C80.9748 198.295 81.4688 198.797 82.0928 199.161C82.7168 199.525 83.4274 199.707 84.2248 199.707C84.9874 199.707 85.6634 199.569 86.2528 199.291C86.8421 198.997 87.3014 198.598 87.6308 198.095C87.9601 197.593 88.1248 197.021 88.1248 196.379H89.5028C89.5028 197.489 89.2514 198.477 88.7488 199.343C88.2634 200.21 87.5874 200.886 86.7208 201.371C85.8541 201.857 84.8488 202.099 83.7048 202.099ZM92.0508 206.597C91.6868 206.597 91.3834 206.467 91.1408 206.207C90.8981 205.947 90.7768 205.627 90.7768 205.245V201.969H90.3868C89.6068 201.969 89.0348 201.787 88.6708 201.423C88.3068 201.059 88.1248 200.487 88.1248 199.707V189.047C88.1248 188.649 88.2461 188.328 88.4888 188.085C88.7488 187.843 89.0694 187.721 89.4508 187.721C89.8494 187.721 90.1701 187.843 90.4128 188.085C90.6554 188.328 90.7768 188.649 90.7768 189.047V199.733H91.8688C92.2674 199.733 92.5881 199.863 92.8308 200.123C93.0908 200.366 93.2208 200.687 93.2208 201.085V205.245C93.2208 205.627 93.1081 205.947 92.8828 206.207C92.6748 206.467 92.3974 206.597 92.0508 206.597ZM102.637 202.073C101.199 202.073 99.9159 201.77 98.7892 201.163C97.6799 200.539 96.8046 199.69 96.1632 198.615C95.5392 197.523 95.2272 196.275 95.2272 194.871C95.2272 193.45 95.5219 192.202 96.1112 191.127C96.7179 190.035 97.5499 189.186 98.6072 188.579C99.6646 187.955 100.878 187.643 102.247 187.643C103.599 187.643 104.761 187.947 105.731 188.553C106.702 189.143 107.439 189.966 107.941 191.023C108.461 192.063 108.721 193.268 108.721 194.637C108.721 194.967 108.609 195.244 108.383 195.469C108.158 195.677 107.872 195.781 107.525 195.781H97.0472V193.701H107.447L106.381 194.429C106.364 193.563 106.191 192.791 105.861 192.115C105.532 191.422 105.064 190.876 104.457 190.477C103.851 190.079 103.114 189.879 102.247 189.879C101.259 189.879 100.41 190.096 99.6992 190.529C99.0059 190.963 98.4772 191.561 98.1132 192.323C97.7492 193.069 97.5672 193.918 97.5672 194.871C97.5672 195.825 97.7839 196.674 98.2172 197.419C98.6506 198.165 99.2486 198.754 100.011 199.187C100.774 199.621 101.649 199.837 102.637 199.837C103.175 199.837 103.721 199.742 104.275 199.551C104.847 199.343 105.307 199.109 105.653 198.849C105.913 198.659 106.191 198.563 106.485 198.563C106.797 198.546 107.066 198.633 107.291 198.823C107.586 199.083 107.742 199.369 107.759 199.681C107.777 199.993 107.638 200.262 107.343 200.487C106.754 200.955 106.017 201.337 105.133 201.631C104.267 201.926 103.435 202.073 102.637 202.073ZM124.116 201.995C123.734 201.995 123.414 201.874 123.154 201.631C122.911 201.371 122.79 201.051 122.79 200.669V194.273C122.79 193.285 122.608 192.479 122.244 191.855C121.88 191.231 121.386 190.772 120.762 190.477C120.155 190.165 119.453 190.009 118.656 190.009C117.928 190.009 117.269 190.157 116.68 190.451C116.09 190.746 115.622 191.145 115.276 191.647C114.929 192.133 114.756 192.696 114.756 193.337H113.118C113.118 192.245 113.378 191.275 113.898 190.425C114.435 189.559 115.163 188.874 116.082 188.371C117 187.869 118.032 187.617 119.176 187.617C120.372 187.617 121.438 187.877 122.374 188.397C123.327 188.9 124.072 189.645 124.61 190.633C125.164 191.621 125.442 192.835 125.442 194.273V200.669C125.442 201.051 125.312 201.371 125.052 201.631C124.809 201.874 124.497 201.995 124.116 201.995ZM113.43 201.995C113.048 201.995 112.728 201.874 112.468 201.631C112.225 201.371 112.104 201.051 112.104 200.669V189.073C112.104 188.675 112.225 188.354 112.468 188.111C112.728 187.869 113.048 187.747 113.43 187.747C113.828 187.747 114.149 187.869 114.392 188.111C114.634 188.354 114.756 188.675 114.756 189.073V200.669C114.756 201.051 114.634 201.371 114.392 201.631C114.149 201.874 113.828 201.995 113.43 201.995ZM135.806 202.099C134.593 202.099 133.51 201.813 132.556 201.241C131.62 200.669 130.884 199.889 130.346 198.901C129.809 197.896 129.54 196.743 129.54 195.443V189.047C129.54 188.649 129.662 188.328 129.904 188.085C130.164 187.843 130.485 187.721 130.866 187.721C131.265 187.721 131.586 187.843 131.828 188.085C132.071 188.328 132.192 188.649 132.192 189.047V195.443C132.192 196.275 132.366 197.012 132.712 197.653C133.076 198.295 133.57 198.797 134.194 199.161C134.818 199.525 135.529 199.707 136.326 199.707C137.089 199.707 137.765 199.569 138.354 199.291C138.944 198.997 139.403 198.598 139.732 198.095C140.062 197.593 140.226 197.021 140.226 196.379H141.604C141.604 197.489 141.353 198.477 140.85 199.343C140.365 200.21 139.689 200.886 138.822 201.371C137.956 201.857 136.95 202.099 135.806 202.099ZM144.152 206.597C143.788 206.597 143.485 206.467 143.242 206.207C143 205.947 142.878 205.627 142.878 205.245V201.969H142.488C141.708 201.969 141.136 201.787 140.772 201.423C140.408 201.059 140.226 200.487 140.226 199.707V189.047C140.226 188.649 140.348 188.328 140.59 188.085C140.85 187.843 141.171 187.721 141.552 187.721C141.951 187.721 142.272 187.843 142.514 188.085C142.757 188.328 142.878 188.649 142.878 189.047V199.733H143.97C144.369 199.733 144.69 199.863 144.932 200.123C145.192 200.366 145.322 200.687 145.322 201.085V205.245C145.322 205.627 145.21 205.947 144.984 206.207C144.776 206.467 144.499 206.597 144.152 206.597ZM154.037 202.099C152.841 202.099 151.766 201.848 150.813 201.345C149.877 200.825 149.131 200.071 148.577 199.083C148.039 198.095 147.771 196.882 147.771 195.443V189.047C147.771 188.666 147.892 188.354 148.135 188.111C148.395 187.851 148.715 187.721 149.097 187.721C149.478 187.721 149.79 187.851 150.033 188.111C150.293 188.354 150.423 188.666 150.423 189.047V195.443C150.423 196.414 150.605 197.22 150.969 197.861C151.333 198.485 151.827 198.953 152.451 199.265C153.075 199.56 153.777 199.707 154.557 199.707C155.302 199.707 155.961 199.56 156.533 199.265C157.122 198.971 157.59 198.572 157.937 198.069C158.283 197.567 158.457 197.003 158.457 196.379H160.095C160.095 197.454 159.826 198.425 159.289 199.291C158.769 200.158 158.049 200.843 157.131 201.345C156.229 201.848 155.198 202.099 154.037 202.099ZM159.783 201.969C159.401 201.969 159.081 201.848 158.821 201.605C158.578 201.345 158.457 201.025 158.457 200.643V189.047C158.457 188.649 158.578 188.328 158.821 188.085C159.081 187.843 159.401 187.721 159.783 187.721C160.181 187.721 160.502 187.843 160.745 188.085C160.987 188.328 161.109 188.649 161.109 189.047V200.643C161.109 201.025 160.987 201.345 160.745 201.605C160.502 201.848 160.181 201.969 159.783 201.969ZM171.759 202.099C170.563 202.099 169.489 201.848 168.535 201.345C167.599 200.825 166.854 200.071 166.299 199.083C165.762 198.095 165.493 196.882 165.493 195.443V189.047C165.493 188.666 165.615 188.354 165.857 188.111C166.117 187.851 166.438 187.721 166.819 187.721C167.201 187.721 167.513 187.851 167.755 188.111C168.015 188.354 168.145 188.666 168.145 189.047V195.443C168.145 196.414 168.327 197.22 168.691 197.861C169.055 198.485 169.549 198.953 170.173 199.265C170.797 199.56 171.499 199.707 172.279 199.707C173.025 199.707 173.683 199.56 174.255 199.265C174.845 198.971 175.313 198.572 175.659 198.069C176.006 197.567 176.179 197.003 176.179 196.379H177.817C177.817 197.454 177.549 198.425 177.011 199.291C176.491 200.158 175.772 200.843 174.853 201.345C173.952 201.848 172.921 202.099 171.759 202.099ZM177.505 201.969C177.124 201.969 176.803 201.848 176.543 201.605C176.301 201.345 176.179 201.025 176.179 200.643V189.047C176.179 188.649 176.301 188.328 176.543 188.085C176.803 187.843 177.124 187.721 177.505 187.721C177.904 187.721 178.225 187.843 178.467 188.085C178.71 188.328 178.831 188.649 178.831 189.047V200.643C178.831 201.025 178.71 201.345 178.467 201.605C178.225 201.848 177.904 201.969 177.505 201.969ZM197.099 202.099C195.903 202.099 194.829 201.848 193.875 201.345C192.939 200.825 192.194 200.071 191.639 199.083C191.102 198.095 190.833 196.882 190.833 195.443V189.047C190.833 188.666 190.955 188.354 191.197 188.111C191.457 187.851 191.778 187.721 192.159 187.721C192.541 187.721 192.853 187.851 193.095 188.111C193.355 188.354 193.485 188.666 193.485 189.047V195.443C193.485 196.414 193.667 197.22 194.031 197.861C194.395 198.485 194.889 198.953 195.513 199.265C196.137 199.56 196.839 199.707 197.619 199.707C198.365 199.707 199.023 199.56 199.595 199.265C200.185 198.971 200.653 198.572 200.999 198.069C201.346 197.567 201.519 197.003 201.519 196.379H203.157C203.157 197.454 202.889 198.425 202.351 199.291C201.831 200.158 201.112 200.843 200.193 201.345C199.292 201.848 198.261 202.099 197.099 202.099ZM202.845 201.969C202.464 201.969 202.143 201.848 201.883 201.605C201.641 201.345 201.519 201.025 201.519 200.643V189.047C201.519 188.649 201.641 188.328 201.883 188.085C202.143 187.843 202.464 187.721 202.845 187.721C203.244 187.721 203.565 187.843 203.807 188.085C204.05 188.328 204.171 188.649 204.171 189.047V200.643C204.171 201.025 204.05 201.345 203.807 201.605C203.565 201.848 203.244 201.969 202.845 201.969ZM222.725 201.969C222.344 201.969 222.023 201.839 221.763 201.579C221.503 201.319 221.373 200.999 221.373 200.617V181.663H224.077V200.617C224.077 200.999 223.947 201.319 223.687 201.579C223.427 201.839 223.106 201.969 222.725 201.969ZM215.757 184.159C215.393 184.159 215.09 184.047 214.847 183.821C214.622 183.579 214.509 183.275 214.509 182.911C214.509 182.547 214.622 182.253 214.847 182.027C215.09 181.785 215.393 181.663 215.757 181.663H229.667C230.031 181.663 230.326 181.785 230.551 182.027C230.794 182.253 230.915 182.547 230.915 182.911C230.915 183.275 230.794 183.579 230.551 183.821C230.326 184.047 230.031 184.159 229.667 184.159H215.757ZM239.863 202.229C238.909 202.229 237.947 202.108 236.977 201.865C236.006 201.623 235.139 201.276 234.377 200.825C233.631 200.357 233.103 199.811 232.791 199.187C232.773 198.858 232.756 198.529 232.739 198.199C232.739 197.87 232.877 197.619 233.155 197.445C233.449 197.255 233.744 197.203 234.039 197.289C234.351 197.359 234.619 197.541 234.845 197.835C235.295 198.39 235.963 198.867 236.847 199.265C237.748 199.664 238.736 199.863 239.811 199.863C240.729 199.863 241.535 199.699 242.229 199.369C242.939 199.04 243.494 198.581 243.893 197.991C244.309 197.385 244.517 196.7 244.517 195.937C244.517 194.88 244.153 194.031 243.425 193.389C242.697 192.748 241.752 192.427 240.591 192.427H238.875C238.545 192.427 238.277 192.315 238.069 192.089C237.861 191.864 237.757 191.587 237.757 191.257C237.757 190.893 237.861 190.599 238.069 190.373C238.277 190.148 238.545 190.035 238.875 190.035H240.201C241.119 190.035 241.891 189.741 242.515 189.151C243.139 188.562 243.451 187.782 243.451 186.811C243.451 185.771 243.087 185.009 242.359 184.523C241.631 184.021 240.695 183.769 239.551 183.769C238.701 183.769 237.904 183.925 237.159 184.237C236.431 184.549 235.789 185.035 235.235 185.693C234.94 186.075 234.637 186.326 234.325 186.447C234.013 186.569 233.692 186.517 233.363 186.291C233.12 186.118 232.955 185.875 232.869 185.563C232.782 185.234 232.834 184.931 233.025 184.653C233.683 183.717 234.55 182.946 235.625 182.339C236.717 181.715 238.025 181.403 239.551 181.403C240.833 181.403 241.96 181.637 242.931 182.105C243.901 182.556 244.664 183.171 245.219 183.951C245.773 184.714 246.051 185.581 246.051 186.551C246.051 187.331 245.877 188.033 245.531 188.657C245.201 189.264 244.777 189.784 244.257 190.217C243.754 190.633 243.225 190.954 242.671 191.179C242.116 191.387 241.631 191.491 241.215 191.491V190.659C241.683 190.659 242.246 190.755 242.905 190.945C243.563 191.119 244.213 191.413 244.855 191.829C245.513 192.245 246.051 192.809 246.467 193.519C246.9 194.213 247.117 195.071 247.117 196.093C247.117 197.237 246.796 198.277 246.155 199.213C245.531 200.132 244.673 200.869 243.581 201.423C242.489 201.961 241.249 202.229 239.863 202.229Z" fill="white"/>
<path d="M334.528 128.5H335.028V128V22.9707V22.4707H334.528H298.2H297.7V22.9707V42.0137V42.5137H298.2H314.912V128V128.5H315.412H334.528Z" fill="white" fill-opacity="0.35" stroke="black"/>
</svg>
