<svg width="360" height="230" viewBox="0 0 360 230" fill="none" xmlns="http://www.w3.org/2000/svg">
<rect x="0.5" y="0.5" width="359" height="229" fill="#111111" stroke="white"/>
<path d="M25.6205 202C25.2391 202 24.9185 201.87 24.6585 201.61C24.3985 201.35 24.2685 201.029 24.2685 200.648V183.046C24.2685 182.647 24.3985 182.327 24.6585 182.084C24.9185 181.824 25.2391 181.694 25.6205 181.694C26.1405 181.694 26.5391 181.937 26.8165 182.422L34.9545 198.724H34.1225L42.0525 182.422C42.3298 181.937 42.7285 181.694 43.2485 181.694C43.6298 181.694 43.9505 181.824 44.2105 182.084C44.4705 182.327 44.6005 182.647 44.6005 183.046V200.648C44.6005 201.029 44.4618 201.35 44.1845 201.61C43.9245 201.87 43.6125 202 43.2485 202C42.8671 202 42.5465 201.87 42.2865 201.61C42.0265 201.35 41.8965 201.029 41.8965 200.648V186.79L42.4165 186.66L35.6045 200.544C35.3098 200.995 34.9198 201.22 34.4345 201.22C33.8625 201.22 33.4465 200.951 33.1865 200.414L26.4525 186.92L26.9725 186.79V200.648C26.9725 201.029 26.8425 201.35 26.5825 201.61C26.3225 201.87 26.0018 202 25.6205 202ZM55.9994 202.104C54.5954 202.104 53.3561 201.801 52.2814 201.194C51.2068 200.57 50.3574 199.721 49.7334 198.646C49.1268 197.554 48.8234 196.306 48.8234 194.902C48.8234 193.481 49.1268 192.233 49.7334 191.158C50.3574 190.066 51.2068 189.217 52.2814 188.61C53.3561 187.986 54.5954 187.674 55.9994 187.674C57.3861 187.674 58.6168 187.986 59.6914 188.61C60.7661 189.217 61.6068 190.066 62.2134 191.158C62.8374 192.233 63.1494 193.481 63.1494 194.902C63.1494 196.306 62.8461 197.554 62.2394 198.646C61.6328 199.721 60.7921 200.57 59.7174 201.194C58.6428 201.801 57.4034 202.104 55.9994 202.104ZM55.9994 199.764C56.9008 199.764 57.6981 199.556 58.3914 199.14C59.0848 198.724 59.6221 198.152 60.0034 197.424C60.4021 196.696 60.6014 195.855 60.6014 194.902C60.6014 193.949 60.4021 193.108 60.0034 192.38C59.6221 191.635 59.0848 191.054 58.3914 190.638C57.6981 190.222 56.9008 190.014 55.9994 190.014C55.0981 190.014 54.3008 190.222 53.6074 190.638C52.9141 191.054 52.3681 191.635 51.9694 192.38C51.5708 193.108 51.3714 193.949 51.3714 194.902C51.3714 195.855 51.5708 196.696 51.9694 197.424C52.3681 198.152 52.9141 198.724 53.6074 199.14C54.3008 199.556 55.0981 199.764 55.9994 199.764ZM79.0563 202C78.675 202 78.3543 201.879 78.0943 201.636C77.8517 201.376 77.7303 201.055 77.7303 200.674V189.104C77.7303 188.705 77.8517 188.385 78.0943 188.142C78.3543 187.899 78.675 187.778 79.0563 187.778C79.455 187.778 79.767 187.899 79.9923 188.142C80.2177 188.385 80.3303 188.705 80.3303 189.104V200.674C80.3303 201.055 80.2177 201.376 79.9923 201.636C79.767 201.879 79.455 202 79.0563 202ZM68.3703 202C67.989 202 67.677 201.879 67.4343 201.636C67.209 201.376 67.0963 201.055 67.0963 200.674V189.104C67.0963 188.705 67.209 188.385 67.4343 188.142C67.677 187.899 67.989 187.778 68.3703 187.778C68.769 187.778 69.0897 187.899 69.3323 188.142C69.575 188.385 69.6963 188.705 69.6963 189.104V200.674C69.6963 201.055 69.575 201.376 69.3323 201.636C69.0897 201.879 68.769 202 68.3703 202ZM69.3583 195.786V193.446H78.4843V195.786H69.3583ZM103.69 202.026C103.309 202.026 102.988 201.905 102.728 201.662C102.485 201.402 102.364 201.081 102.364 200.7V193.264C102.364 192.172 102.095 191.366 101.558 190.846C101.021 190.309 100.319 190.04 99.4521 190.04C98.5508 190.04 97.8055 190.352 97.2161 190.976C96.6441 191.6 96.3581 192.397 96.3581 193.368H94.2001C94.2001 192.241 94.4428 191.253 94.9281 190.404C95.4135 189.537 96.0895 188.861 96.9561 188.376C97.8401 187.891 98.8455 187.648 99.9721 187.648C100.96 187.648 101.835 187.865 102.598 188.298C103.361 188.731 103.95 189.373 104.366 190.222C104.799 191.054 105.016 192.068 105.016 193.264V200.7C105.016 201.081 104.895 201.402 104.652 201.662C104.409 201.905 104.089 202.026 103.69 202.026ZM86.3481 202.026C85.9668 202.026 85.6461 201.905 85.3861 201.662C85.1435 201.402 85.0221 201.081 85.0221 200.7V189.13C85.0221 188.731 85.1435 188.411 85.3861 188.168C85.6461 187.925 85.9668 187.804 86.3481 187.804C86.7468 187.804 87.0675 187.925 87.3101 188.168C87.5528 188.411 87.6741 188.731 87.6741 189.13V200.7C87.6741 201.081 87.5528 201.402 87.3101 201.662C87.0675 201.905 86.7468 202.026 86.3481 202.026ZM95.0321 202.026C94.6508 202.026 94.3301 201.905 94.0701 201.662C93.8275 201.402 93.7061 201.081 93.7061 200.7V193.264C93.7061 192.172 93.4375 191.366 92.9001 190.846C92.3628 190.309 91.6608 190.04 90.7941 190.04C89.8928 190.04 89.1475 190.352 88.5581 190.976C87.9688 191.6 87.6741 192.397 87.6741 193.368H86.0361C86.0361 192.241 86.2615 191.253 86.7121 190.404C87.1628 189.537 87.7868 188.861 88.5841 188.376C89.3815 187.891 90.2915 187.648 91.3141 187.648C92.3021 187.648 93.1775 187.865 93.9401 188.298C94.7028 188.731 95.2921 189.373 95.7081 190.222C96.1415 191.054 96.3581 192.068 96.3581 193.264V200.7C96.3581 201.081 96.2368 201.402 95.9941 201.662C95.7515 201.905 95.4308 202.026 95.0321 202.026ZM115.351 202.104C114.085 202.104 112.95 201.792 111.945 201.168C110.939 200.527 110.142 199.669 109.553 198.594C108.981 197.502 108.695 196.271 108.695 194.902C108.695 193.533 109.007 192.302 109.631 191.21C110.272 190.118 111.13 189.26 112.205 188.636C113.297 187.995 114.519 187.674 115.871 187.674C117.223 187.674 118.436 187.995 119.511 188.636C120.585 189.26 121.435 190.118 122.059 191.21C122.7 192.302 123.021 193.533 123.021 194.902H122.007C122.007 196.271 121.712 197.502 121.123 198.594C120.551 199.669 119.762 200.527 118.757 201.168C117.751 201.792 116.616 202.104 115.351 202.104ZM115.871 199.764C116.755 199.764 117.543 199.556 118.237 199.14C118.93 198.707 119.476 198.126 119.875 197.398C120.273 196.653 120.473 195.821 120.473 194.902C120.473 193.966 120.273 193.134 119.875 192.406C119.476 191.661 118.93 191.08 118.237 190.664C117.543 190.231 116.755 190.014 115.871 190.014C115.004 190.014 114.215 190.231 113.505 190.664C112.811 191.08 112.257 191.661 111.841 192.406C111.442 193.134 111.243 193.966 111.243 194.902C111.243 195.821 111.442 196.653 111.841 197.398C112.257 198.126 112.811 198.707 113.505 199.14C114.215 199.556 115.004 199.764 115.871 199.764ZM121.695 202.026C121.313 202.026 120.993 201.905 120.733 201.662C120.49 201.402 120.369 201.081 120.369 200.7V196.722L120.863 193.966L123.021 194.902V200.7C123.021 201.081 122.891 201.402 122.631 201.662C122.388 201.905 122.076 202.026 121.695 202.026ZM134.741 202.026C134.36 202.026 134.039 201.905 133.779 201.662C133.537 201.402 133.415 201.081 133.415 200.7V195.89H131.647L127.669 201.636C127.496 201.879 127.21 202 126.811 202C126.43 202.017 126.127 201.913 125.901 201.688C125.641 201.428 125.52 201.159 125.537 200.882C125.555 200.605 125.65 200.336 125.823 200.076L129.463 194.694L126.109 189.676C125.936 189.399 125.849 189.121 125.849 188.844C125.867 188.549 126.005 188.281 126.265 188.038C126.491 187.83 126.794 187.735 127.175 187.752C127.574 187.752 127.86 187.899 128.033 188.194L131.491 193.55H133.415V189.104C133.415 188.705 133.537 188.385 133.779 188.142C134.039 187.899 134.36 187.778 134.741 187.778C135.14 187.778 135.461 187.899 135.703 188.142C135.946 188.385 136.067 188.705 136.067 189.104V193.55H138.017L141.449 188.194C141.64 187.899 141.926 187.752 142.307 187.752C142.689 187.735 142.992 187.83 143.217 188.038C143.477 188.281 143.616 188.549 143.633 188.844C143.651 189.121 143.564 189.399 143.373 189.676L140.019 194.694L143.659 200.076C143.833 200.336 143.928 200.605 143.945 200.882C143.963 201.159 143.841 201.428 143.581 201.688C143.356 201.913 143.044 202.017 142.645 202C142.264 202 141.987 201.879 141.813 201.636L137.861 195.89H136.067V200.7C136.067 201.081 135.946 201.402 135.703 201.662C135.461 201.905 135.14 202.026 134.741 202.026Z" fill="white"/>
<path d="M337.632 98.2666C337.632 103.198 336.729 107.373 334.922 110.791C333.164 114.16 330.942 116.919 328.257 119.067C325.62 121.167 322.739 122.681 319.614 123.608C316.489 124.536 313.584 125 310.898 125H249.814V105.957H310.898C313.486 105.957 315.391 105.298 316.611 103.979C317.881 102.661 318.516 100.757 318.516 98.2666V82.0801H249.814V62.8906H318.516V46.8506C318.516 41.626 315.977 39.0137 310.898 39.0137H249.814V19.9707H310.898C314.17 19.9707 317.1 20.3857 319.688 21.2158C322.275 22.0459 324.546 23.1689 326.499 24.585C328.501 25.9521 330.21 27.5391 331.626 29.3457C333.042 31.1523 334.189 33.0566 335.068 35.0586C335.947 37.0117 336.582 39.0137 336.973 41.0645C337.412 43.0664 337.632 44.9463 337.632 46.7041V98.2666Z" fill="white" fill-opacity="0.35"/>
</svg>
